<svg xmlns="http://www.w3.org/2000/svg" viewBox="0 0 37 37" shape-rendering="crispEdges" width="370" height="370">
<rect x="0" y="0" width="37" height="37" fill="#FFF"/>
<path fill="#000" d="M4 4h7v1h-7zM15 4h1v1h-1zM17 4h4v1h-4zM22 4h2v1h-2zM26 4h7v1h-7zM4 5h1v1h-1zM10 5h1v1h-1zM13 5h7v1h-7zM22 5h1v1h-1zM24 5h1v1h-1zM26 5h1v1h-1zM32 5h1v1h-1zM4 6h1v1h-1zM6 6h3v1h-3zM10 6h1v1h-1zM12 6h1v1h-1zM14 6h4v1h-4zM19 6h2v1h-2zM24 6h1v1h-1zM26 6h1v1h-1zM28 6h3v1h-3zM32 6h1v1h-1zM4 7h1v1h-1zM6 7h3v1h-3zM10 7h1v1h-1zM12 7h1v1h-1zM15 7h3v1h-3zM20 7h2v1h-2zM23 7h2v1h-2zM26 7h1v1h-1zM28 7h3v1h-3zM32 7h1v1h-1zM4 8h1v1h-1zM6 8h3v1h-3zM10 8h1v1h-1zM14 8h2v1h-2zM17 8h1v1h-1zM21 8h1v1h-1zM23 8h1v1h-1zM26 8h1v1h-1zM28 8h3v1h-3zM32 8h1v1h-1zM4 9h1v1h-1zM10 9h1v1h-1zM13 9h2v1h-2zM16 9h1v1h-1zM18 9h2v1h-2zM21 9h2v1h-2zM26 9h1v1h-1zM32 9h1v1h-1zM4 10h7v1h-7zM12 10h1v1h-1zM14 10h1v1h-1zM16 10h1v1h-1zM18 10h1v1h-1zM20 10h1v1h-1zM22 10h1v1h-1zM24 10h1v1h-1zM26 10h7v1h-7zM13 11h3v1h-3zM18 11h3v1h-3zM23 11h1v1h-1zM7 12h2v1h-2zM10 12h2v1h-2zM14 12h1v1h-1zM16 12h2v1h-2zM22 12h1v1h-1zM29 12h2v1h-2zM6 13h4v1h-4zM13 13h2v1h-2zM16 13h6v1h-6zM24 13h1v1h-1zM27 13h2v1h-2zM30 13h2v1h-2zM4 14h1v1h-1zM7 14h1v1h-1zM10 14h1v1h-1zM12 14h1v1h-1zM14 14h7v1h-7zM25 14h3v1h-3zM5 15h2v1h-2zM8 15h2v1h-2zM11 15h1v1h-1zM14 15h1v1h-1zM16 15h3v1h-3zM22 15h3v1h-3zM29 15h1v1h-1zM32 15h1v1h-1zM4 16h2v1h-2zM7 16h2v1h-2zM10 16h1v1h-1zM13 16h1v1h-1zM15 16h3v1h-3zM19 16h2v1h-2zM22 16h5v1h-5zM29 16h1v1h-1zM31 16h1v1h-1zM4 17h2v1h-2zM8 17h2v1h-2zM11 17h1v1h-1zM13 17h8v1h-8zM22 17h1v1h-1zM26 17h1v1h-1zM28 17h1v1h-1zM30 17h3v1h-3zM5 18h2v1h-2zM8 18h4v1h-4zM13 18h5v1h-5zM21 18h1v1h-1zM23 18h5v1h-5zM29 18h1v1h-1zM32 18h1v1h-1zM4 19h2v1h-2zM8 19h2v1h-2zM11 19h3v1h-3zM19 19h2v1h-2zM22 19h1v1h-1zM28 19h5v1h-5zM4 20h4v1h-4zM9 20h3v1h-3zM13 20h1v1h-1zM16 20h3v1h-3zM20 20h1v1h-1zM22 20h1v1h-1zM24 20h1v1h-1zM27 20h1v1h-1zM29 20h1v1h-1zM4 21h3v1h-3zM8 21h1v1h-1zM12 21h1v1h-1zM14 21h6v1h-6zM21 21h1v1h-1zM23 21h2v1h-2zM27 21h2v1h-2zM4 22h2v1h-2zM8 22h1v1h-1zM10 22h1v1h-1zM13 22h2v1h-2zM17 22h1v1h-1zM19 22h1v1h-1zM22 22h2v1h-2zM28 22h1v1h-1zM30 22h1v1h-1zM32 22h1v1h-1zM4 23h3v1h-3zM11 23h1v1h-1zM16 23h2v1h-2zM20 23h3v1h-3zM25 23h4v1h-4zM30 23h1v1h-1zM32 23h1v1h-1zM4 24h7v1h-7zM12 24h2v1h-2zM16 24h1v1h-1zM20 24h2v1h-2zM24 24h5v1h-5zM30 24h1v1h-1zM32 24h1v1h-1zM12 25h3v1h-3zM18 25h1v1h-1zM20 25h3v1h-3zM24 25h1v1h-1zM28 25h3v1h-3zM4 26h7v1h-7zM12 26h1v1h-1zM14 26h1v1h-1zM17 26h4v1h-4zM23 26h2v1h-2zM26 26h1v1h-1zM28 26h1v1h-1zM30 26h1v1h-1zM4 27h1v1h-1zM10 27h1v1h-1zM17 27h4v1h-4zM22 27h3v1h-3zM28 27h2v1h-2zM32 27h1v1h-1zM4 28h1v1h-1zM6 28h3v1h-3zM10 28h1v1h-1zM12 28h2v1h-2zM15 28h1v1h-1zM17 28h1v1h-1zM20 28h2v1h-2zM23 28h6v1h-6zM32 28h1v1h-1zM4 29h1v1h-1zM6 29h3v1h-3zM10 29h1v1h-1zM12 29h1v1h-1zM15 29h7v1h-7zM27 29h1v1h-1zM30 29h2v1h-2zM4 30h1v1h-1zM6 30h3v1h-3zM10 30h1v1h-1zM15 30h1v1h-1zM17 30h1v1h-1zM24 30h2v1h-2zM27 30h3v1h-3zM31 30h2v1h-2zM4 31h1v1h-1zM10 31h1v1h-1zM13 31h5v1h-5zM19 31h1v1h-1zM21 31h2v1h-2zM25 31h1v1h-1zM28 31h3v1h-3zM32 31h1v1h-1zM4 32h7v1h-7zM13 32h1v1h-1zM18 32h1v1h-1zM21 32h1v1h-1zM23 32h3v1h-3zM27 32h2v1h-2z"/>
</svg>